name kv08_filtered_grf.mot
datacolumns 37
datarows 5
range 0.002500 0.004500
endheader
time	1_ground_force_vx	1_ground_force_vy	1_ground_force_vz	1_ground_force_px	1_ground_force_py	1_ground_force_pz	1_ground_torque_x	1_ground_torque_y	1_ground_torque_z	2_ground_force_vx	2_ground_force_vy	2_ground_force_vz	2_ground_force_px	2_ground_force_py	2_ground_force_pz	2_ground_torque_x	2_ground_torque_y	2_ground_torque_z	3_ground_force_vx	3_ground_force_vy	3_ground_force_vz	3_ground_force_px	3_ground_force_py	3_ground_force_pz	3_ground_torque_x	3_ground_torque_y	3_ground_torque_z	4_ground_force_vx	4_ground_force_vy	4_ground_force_vz	4_ground_force_px	4_ground_force_py	4_ground_force_pz	4_ground_torque_x	4_ground_torque_y	4_ground_torque_z
            0.002500	            0.000000	           -0.000000	           -0.000000	            0.149158	            0.000000	            0.197594	           -0.000000	           -0.000000	            0.000000	            0.000000	           -0.000000	           -0.000000	           -0.158501	            0.000000	            0.233051	           -0.000000	            0.000000	           -0.000000	           25.748324	            0.198402	           87.327738	            0.377343	            1.021754	            1.083008	           -0.719344	           -0.005543	           -2.439719	          -20.335652	           24.150070	           61.347565	           -0.420113	            1.021901	            1.085242	           -0.211112	            0.250711	            0.636873
            0.003000	            0.000000	           -0.000000	           -0.000000	            0.149158	            0.000000	            0.197594	           -0.000000	           -0.000000	            0.000000	            0.000000	           -0.000000	           -0.000000	           -0.158501	            0.000000	            0.233051	           -0.000000	            0.000000	           -0.000000	           25.260675	            0.033280	           87.551704	            0.377343	            1.021754	            1.083008	           -0.708711	           -0.000934	           -2.456341	          -20.097049	           24.346850	           61.400304	           -0.420113	            1.021901	            1.085242	           -0.205084	            0.248451	            0.626569
            0.003500	            0.000000	           -0.000000	           -0.000000	            0.149158	            0.000000	            0.197594	           -0.000000	           -0.000000	            0.000000	            0.000000	           -0.000000	           -0.000000	           -0.158501	            0.000000	            0.233051	           -0.000000	            0.000000	           -0.000000	           24.778652	           -0.137861	           87.785333	            0.377397	            1.021791	            1.083032	           -0.698209	            0.003885	           -2.473602	          -19.864368	           24.543027	           61.465526	           -0.420123	            1.021904	            1.085245	           -0.199219	            0.246141	            0.616436
            0.004000	            0.000000	           -0.000000	           -0.000000	            0.149158	            0.000000	            0.197594	           -0.000000	           -0.000000	            0.000000	            0.000000	           -0.000000	           -0.000000	           -0.158501	            0.000000	            0.233051	           -0.000000	            0.000000	           -0.000000	           24.303692	           -0.314965	           88.028790	            0.377452	            1.021828	            1.083055	           -0.687866	            0.008914	           -2.491475	          -19.638430	           24.738071	           61.543468	           -0.420132	            1.021907	            1.085247	           -0.193539	            0.243796	            0.606517
            0.004500	            0.000000	           -0.000000	           -0.000000	            0.149158	            0.000000	            0.197594	           -0.000000	           -0.000000	            0.000000	            0.000000	           -0.000000	           -0.000000	           -0.158501	            0.000000	            0.233051	           -0.000000	            0.000000	           -0.000000	           23.837157	           -0.497948	           88.282208	            0.377506	            1.021865	            1.083079	           -0.677710	            0.014157	           -2.509934	          -19.419986	           24.931472	           61.634299	           -0.420142	            1.021910	            1.085249	           -0.188059	            0.241431	            0.596854
